<?xml version="1.0" encoding="utf-8"?>
<!-- Generator: Adobe Illustrator 23.0.0, SVG Export Plug-In . SVG Version: 6.00 Build 0)  -->
<svg version="1.1" id="图层_1" xmlns="http://www.w3.org/2000/svg" xmlns:xlink="http://www.w3.org/1999/xlink" x="0px" y="0px"
	 viewBox="0 0 50 50" style="enable-background:new 0 0 50 50;" xml:space="preserve">
<g>
	<path d="M18.3,8.8C18.4,5.4,21,3,24.1,3c2.8,0,5.6,2.1,5.8,5.8c0.2,0,0.3,0,0.5,0c2.6,0,5.2,0,7.9,0c1.9,0,3.2,1.2,3.2,3.1
		c0,4.6,0,9.1,0,13.7c0,0.2,0,0.3,0,0.5c-1,0-1.9,0-2.9,0c0-2.9,0-5.7,0-8.6c-9.6,0-19.2,0-28.9,0c0,8.7,0,17.3,0,25.9
		c9.6,0,19.2,0,28.8,0c0-1.9,0-3.8,0-5.7c1,0,1.9,0,2.9,0c0,0.1,0,0.3,0,0.4c0,1.7,0,3.3,0,5c0,2-1.2,3.1-3.2,3.1
		c-9.5,0-18.9,0-28.4,0c-1.7,0-3.1-1.3-3.1-3.1c0-10.4,0-20.8,0-31.3C6.8,10,8,8.8,9.9,8.8c2.6,0,5.2,0,7.8,0
		C17.9,8.8,18.1,8.8,18.3,8.8z M12.6,14.5c7.7,0,15.4,0,23.1,0c0.1-1.4-1.2-2.8-2.7-2.8c-1,0-1.9,0-2.9,0c-1.8,0-3-1.2-3.1-3
		c-0.1-1.6-1.3-2.8-2.9-2.8c-1.6,0-2.8,1.2-2.8,2.8c-0.1,1.7-1.3,2.9-3,2.9c-0.9,0-1.9,0-2.8,0C13.8,11.7,12.6,12.9,12.6,14.5z"/>
	<path d="M47.2,29c0,2,0,3.8,0,5.8c-4.8,0-9.6,0-14.4,0c0,1.9,0,3.8,0,5.6c-2.9-2.9-5.7-5.7-8.5-8.5c2.8-2.8,5.6-5.6,8.5-8.5
		c0,1.9,0,3.7,0,5.6C37.6,29,42.4,29,47.2,29z"/>
	<path d="M12.6,20.4c4.8,0,9.6,0,14.4,0c0,0.9,0,1.9,0,2.8c-4.8,0-9.6,0-14.4,0C12.6,22.2,12.6,21.3,12.6,20.4z"/>
	<path d="M24.1,40.5c-3.9,0-7.7,0-11.5,0c0-0.9,0-1.9,0-2.9c0.2,0,0.3,0,0.5,0c3.5,0,7,0,10.6,0c0.4,0,0.5,0.1,0.5,0.5
		C24.1,38.9,24.1,39.7,24.1,40.5z"/>
	<path d="M19.7,31.9c0,1,0,1.9,0,2.8c-2.4,0-4.8,0-7.2,0c0-0.9,0-1.9,0-2.8C14.9,31.9,17.3,31.9,19.7,31.9z"/>
	<path d="M19.7,26.1c0,0.9,0,1.9,0,2.8c-2.4,0-4.8,0-7.2,0c0-0.9,0-1.9,0-2.8C14.9,26.1,17.3,26.1,19.7,26.1z"/>
</g>
</svg>
